<?xml version="1.0" encoding="utf-8"?>
<!-- Generator: Adobe Illustrator 16.0.0, SVG Export Plug-In . SVG Version: 6.00 Build 0)  -->
<!DOCTYPE svg PUBLIC "-//W3C//DTD SVG 1.1//EN" "http://www.w3.org/Graphics/SVG/1.1/DTD/svg11.dtd">
<svg version="1.1" id="Layer_1" xmlns="http://www.w3.org/2000/svg" xmlns:xlink="http://www.w3.org/1999/xlink" x="0px" y="0px"
	 width="612px" height="792px" viewBox="0 0 612 792" enable-background="new 0 0 612 792" xml:space="preserve">
<g>
	<path fill="#367CFF" d="M478,349.15c22.66-27.66,34.89-60.37,35-94.77c-0.14-32.16-24.54-59.36-57.82-68.01
		c-6.949-1.8-14.29-2.8-21.87-2.86c-0.27-0.01-0.54-0.01-0.81-0.01c-44.39,0-80.5,31.92-80.5,71.16v164.51
		c12.01-2.02,23.71-4.95,35-8.75V254.66c0-19.94,20.41-36.16,45.5-36.16c9.63,0,18.57,2.39,25.93,6.46
		c11.73,6.49,19.46,17.25,19.57,29.43V349.15z M478,371.57v131.77c0,19.94-20.41,36.16-45.5,36.16S387,523.28,387,503.34v-77.16
		c-11.33,3.561-23.03,6.29-35,8.19v68.97c0,39.24,36.11,71.16,80.5,71.16s80.5-31.92,80.5-71.16V321.62
		C504.64,339.64,492.88,356.48,478,371.57z"/>
</g>
<g>
	<path fill="#367CFF" d="M190.52,183.5c-0.01,0-0.01,0-0.02,0c-7.5,0-14.76,0.91-21.66,2.61c-29.3,7.25-51.9,28.81-57.49,55.58
		c-0.35,4.04-0.52,8.11-0.52,12.21c0,34.16,11.94,66.66,34.17,94.24v-93.48c0-2.66,0.36-5.25,1.06-7.75
		c2.57-9.36,9.73-17.38,19.51-22.49c7.17-3.74,15.74-5.92,24.93-5.92c25.09,0,45.5,16.22,45.5,36.16V410.14
		c11.28,3.851,22.99,6.83,35,8.891V254.66C271,215.43,234.9,183.51,190.52,183.5z M236,425.92v77.42c0,19.94-20.41,36.16-45.5,36.16
		S145,523.28,145,503.34V370.73c-14.98-15.38-26.74-32.55-35-50.93v183.54c0,39.24,36.11,71.16,80.5,71.16s80.5-31.92,80.5-71.16
		V434.23C259.03,432.3,247.33,429.52,236,425.92z"/>
</g>
<g>
	<path fill="#367CFF" d="M455.18,186.37c-6.949-1.8-14.29-2.8-21.87-2.86c11.83,12.49,20.33,26.54,25.12,41.45
		c11.73,6.49,19.46,17.25,19.57,29.43v0.27c-0.36,51.63-37.31,96.41-91,118.39v-16.29c-11.02,5.01-22.76,8.87-35,11.51v15.3
		c-12.85,2.57-26.27,3.93-40.09,3.93c-14.11,0-27.82-1.42-40.91-4.1v-15.31c-12.25-2.7-23.99-6.63-35-11.71v16.33
		c-53.51-22.21-90.17-67.13-90.17-118.81c0-2.35,0.08-4.68,0.23-6.99c2.57-9.36,9.73-17.38,19.51-22.49
		c4.82-14.71,13.26-28.58,24.95-40.92c-0.01,0-0.01,0-0.02,0c-7.5,0-14.76,0.91-21.66,2.61c-29.3,7.25-51.9,28.81-57.49,55.58
		c-0.35,4.04-0.52,8.11-0.52,12.21c0,34.16,11.94,66.66,34.17,94.24c7.5,9.31,16.19,18.06,25.98,26.12
		c18.97,15.62,41.03,27.71,65.02,35.88c11.28,3.851,22.99,6.83,35,8.891c13.32,2.3,27.01,3.47,40.91,3.47
		c13.62,0,27.03-1.13,40.09-3.33c12.01-2.02,23.71-4.95,35-8.75c24.31-8.17,46.66-20.36,65.85-36.16
		c9.431-7.77,17.841-16.17,25.15-25.11c22.66-27.66,34.89-60.37,35-94.77C512.86,222.22,488.46,195.02,455.18,186.37z"/>
	<path fill="#367CFF" d="M455.18,186.37C469.68,206.2,478,229.28,478,253.9v0.76c-0.36,51.63-37.31,96.41-91,118.39
		c-11.02,4.51-22.74,8.06-35,10.52c-12.85,2.57-26.27,3.93-40.09,3.93c-14.11,0-27.82-1.42-40.91-4.1
		c-12.27-2.51-23.99-6.12-35-10.69c-53.51-22.21-90.17-67.13-90.17-118.81c0-2.35,0.08-4.68,0.23-6.99
		c1.42-22.1,9.55-42.8,22.78-60.8c-29.3,7.25-51.9,28.81-57.49,55.58c-0.35,4.04-0.52,8.11-0.52,12.21
		c0,34.16,11.94,66.66,34.17,94.24c7.5,9.31,16.19,18.06,25.98,26.12c18.97,15.62,41.03,27.71,65.02,35.88
		c11.28,3.851,22.99,6.83,35,8.891c13.32,2.3,27.01,3.47,40.91,3.47c13.62,0,27.03-1.13,40.09-3.33c12.01-2.02,23.71-4.95,35-8.75
		c24.31-8.17,46.66-20.36,65.85-36.16c9.431-7.77,17.841-16.17,25.15-25.11c22.66-27.66,34.89-60.37,35-94.77
		C512.86,222.22,488.46,195.02,455.18,186.37z"/>
</g>
</svg>
